<?xml version="1.0" encoding="UTF-8"?>
<svg width="32" height="32" viewBox="0 0 32 32" fill="none" xmlns="http://www.w3.org/2000/svg">
  <!-- Rocket body -->
  <path d="M16 8L18 13L18 22L16 25L14 22L14 13L16 8Z" fill="#4F46E5" stroke="#4338CA" stroke-width="1"/>
  <!-- Rocket fins -->
  <path d="M14 20L12 22L12 24L14 22M18 20L20 22L20 24L18 22" fill="#4338CA" stroke="#4F46E5" stroke-width="1"/>
  <!-- Window -->
  <circle cx="16" cy="16" r="1.5" fill="white" fill-opacity="0.8" stroke="#4F46E5" stroke-width="0.5"/>
  <!-- Engine flames -->
  <g class="animate-pulse">
    <path d="M15 25L16 28L17 25L16 24.5L15 25" fill="#F97316" fill-opacity="0.7"/>
    <path d="M15.5 25L16 27L16.5 25L16 24.75L15.5 25" fill="#EAB308" fill-opacity="0.7"/>
  </g>
  <!-- Stars -->
  <g class="animate-twinkle">
    <circle cx="10" cy="12" r="0.3" fill="white" fill-opacity="0.4"/>
    <circle cx="22" cy="14" r="0.3" fill="white" fill-opacity="0.4"/>
    <circle cx="20" cy="10" r="0.3" fill="white" fill-opacity="0.4"/>
    <circle cx="12" cy="18" r="0.3" fill="white" fill-opacity="0.4"/>
  </g>
</svg> 